<?xml version="1.0" standalone="no"?><!DOCTYPE svg PUBLIC "-//W3C//DTD SVG 1.1//EN" "http://www.w3.org/Graphics/SVG/1.1/DTD/svg11.dtd"><svg t="1562242929999" class="icon" viewBox="0 0 1024 1024" version="1.1" xmlns="http://www.w3.org/2000/svg" p-id="1380" xmlns:xlink="http://www.w3.org/1999/xlink" width="200" height="200"><defs><style type="text/css"></style></defs><path d="M796.633642 289.983487c-69.994144-58.471716-158.765957-81.629135-244.621347-104.029308l-23.249517-6.006807c-50.612725-12.985756-73.729212-18.910699-109.002576-41.515532-0.839111-0.532119-84.811618-53.80544-114.282836-53.80544-9.005095 0-14.33652 3.980661-17.222243 7.326872-11.655458 13.476943-2.967588 29.686113 5.443989 45.332465 5.403057 10.069333 11.532661 21.479197 15.226796 34.260292 10.458189 36.112476 2.333138 64.23293-24.845874 85.98842-125.774565 100.662631-186.446389 213.072817-180.327018 334.119707 9.997702 198.234877 179.580005 347.719446 394.45384 347.719446l0.010233 0c10.969842 0 22.052249-0.378623 33.236985-1.156336 227.941456-15.902178 384.302643-170.042791 389.122415-383.596562C922.91986 451.164447 880.043331 359.650173 796.633642 289.983487zM587.080999 612.713796c-17.488303 2.37407-33.431414-16.751522-44.841278-46.795792 0 0 58.226123-62.319347 60.702524-64.969711 2.476401-2.660596 2.353604-4.27742-1.606591-5.085832s-75.366502-15.318894-75.366502-15.318894c-0.675382-42.794665 11.634991-74.711586 32.766264-77.597309 25.971511-3.530406 54.010101 37.146015 63.547315 102.514815C630.66361 562.929949 612.673887 609.224322 587.080999 612.713796zM779.483031 575.936171c-16.57756 4.328585-29.389354-16.761756-38.220487-48.678676 0 0 52.93563-51.308573 55.360865-53.662177 2.435469-2.353604 1.923816-3.50994-1.156336-4.062526-3.059686-0.562818-64.959477-11.962449-64.959477-11.962449-0.26606-38.189787 10.100032-74.066903 31.435966-78.006632 22.707165-4.205788 44.493354 40.308031 49.998741 94.471628C818.327734 536.886807 800.225447 570.533115 779.483031 575.936171z" p-id="1381" fill="#ff5000"></path></svg>